<?xml version="1.0" standalone="no"?>
<!DOCTYPE svg PUBLIC "-//W3C//DTD SVG 20010904//EN"
 "http://www.w3.org/TR/2001/REC-SVG-20010904/DTD/svg10.dtd">
<svg version="1.0" xmlns="http://www.w3.org/2000/svg"
 width="3202.000000pt" height="1311.000000pt" viewBox="0 0 3202.000000 1311.000000"
 preserveAspectRatio="xMidYMid meet">

<g transform="translate(0.000000,1311.000000) scale(0.100000,-0.100000)"
fill="#000000" stroke="none">
<path d="M6205 12713 c-24 -43 -307 -537 -628 -1098 l-584 -1020 1641 -6
c1627 -5 1642 -5 1796 -27 649 -93 1155 -282 1600 -597 805 -571 1305 -1472
1437 -2593 24 -207 24 -708 -1 -917 -76 -651 -263 -1221 -566 -1725 -568 -946
-1466 -1526 -2570 -1660 -231 -27 -492 -31 -1862 -24 l-1397 7 26 51 c79 156
279 489 708 1176 550 882 846 1400 1045 1830 174 374 275 671 320 935 20 114
20 124 4 245 -60 472 -165 745 -363 940 -161 159 -367 261 -697 343 -145 36
-451 94 -457 86 -2 -2 -781 -1266 -1731 -2809 l-1726 -2804 0 -1139 0 -1138
3218 4 c2327 3 3254 7 3352 16 395 33 613 62 900 117 1047 200 1956 623 2741
1274 160 134 565 539 699 699 1194 1438 1684 3376 1334 5281 -160 874 -535
1737 -1049 2419 -886 1174 -2175 1908 -3744 2131 -500 71 -746 79 -2238 80
l-1163 0 -45 -77z"/>
<path d="M4753 10583 c42 -2 112 -2 155 0 42 1 7 3 -78 3 -85 0 -120 -2 -77
-3z"/>
</g>
</svg>
